<?xml version="1.0" ?><svg viewBox="0 0 32 32" xmlns="http://www.w3.org/2000/svg"><defs><style>.cls-1{fill:#d8e1ef;}.cls-2{fill:#0593ff;}</style></defs><title/><g id="Pelindung"><path class="cls-1" d="M16,2A14,14,0,1,0,30,16,14,14,0,0,0,16,2Zm3,18a5,5,0,0,1-6,0,5.26,5.26,0,0,1-1-1,5,5,0,0,1,0-6,5.26,5.26,0,0,1,1-1,5,5,0,0,1,6,0,5.26,5.26,0,0,1,1,1,5,5,0,0,1,0,6A5.26,5.26,0,0,1,19,20Z"/><path class="cls-2" d="M30,16a13.39,13.39,0,0,1-.32,3H20a5,5,0,0,0,0-6h9.68A13.72,13.72,0,0,1,30,16Z"/><path class="cls-2" d="M11,16a4.94,4.94,0,0,0,1,3H2.32A14.11,14.11,0,0,1,2,16a13.86,13.86,0,0,1,.32-3H12A4.94,4.94,0,0,0,11,16Z"/><path class="cls-2" d="M19,20v9.68A14,14,0,0,1,16,30a13.86,13.86,0,0,1-3-.32V20a5,5,0,0,0,6,0Z"/><path class="cls-2" d="M19,2.32V12a5,5,0,0,0-6,0V2.32A13.72,13.72,0,0,1,16,2,14.11,14.11,0,0,1,19,2.32Z"/></g></svg>