<svg xmlns="http://www.w3.org/2000/svg" width="256" height="256" viewBox="0 0 100 100"><rect width="100" height="100" rx="20" fill="#1f2937"></rect><path fill="#fff" d="M94.86 61.92L94.86 61.92Q96.39 61.92 96.39 66.06L96.39 66.06Q96.39 68.31 94.50 71.51Q92.61 74.70 89.60 77.36Q86.59 80.01 82.89 81.72Q79.20 83.43 75.11 83.43Q71.02 83.43 68.72 80.78Q66.43 78.12 66.43 74.84Q66.43 71.55 67.50 67.41Q68.59 63.27 69.84 58.77L69.84 58.77Q73.27 46.80 73.36 41.94L73.36 41.94Q73.36 39.87 72.81 38.75Q72.28 37.62 70.75 37.62L70.75 37.62Q68.05 37.62 64.98 40.86Q61.93 44.10 59.23 49.14L59.23 49.14Q53.02 60.66 52.66 71.64L52.66 71.64Q52.84 72.90 53.02 74.16Q53.20 75.42 53.20 76.86L53.20 76.86Q53.20 79.74 50.36 82.13Q47.53 84.51 44.02 84.51L44.02 84.51Q41.95 84.51 40.96 82.49Q39.97 80.46 39.97 77.49L39.97 77.49Q39.97 74.52 41.32 69.39Q42.66 64.26 44.29 58.50L44.29 58.50Q48.61 43.29 48.70 35.82L48.70 35.82Q48.70 32.04 47.75 29.88Q46.80 27.72 44.11 27.72L44.11 27.72Q39.25 27.72 34.48 34.65Q29.71 41.58 25.93 56.16L25.93 56.16Q24.94 59.94 24.40 62.73L24.40 62.73L24.31 64.44Q26.02 72.72 26.02 75.24L26.02 75.24Q26.02 80.46 22.33 82.26L22.33 82.26Q20.62 83.07 19.04 83.79Q17.47 84.51 15.67 84.51L15.67 84.51Q11.17 84.51 11.17 75.92Q11.17 67.32 15.94 42.30L15.94 42.30Q17.65 33.30 17.65 32.22L17.65 32.22Q17.65 24.93 13.96 24.93L13.96 24.93Q12.70 24.93 11.66 25.65Q10.63 26.37 9.59 27.18Q8.56 27.99 7.48 28.71Q6.40 29.43 5.00 29.43Q3.61 29.43 3.61 27.00L3.61 27.00Q3.61 22.05 8.20 18.91L8.20 18.91Q12.61 15.66 18.91 15.66L18.91 15.66Q27.01 15.66 28.45 23.22L28.45 23.22Q28.81 25.47 28.99 27.99L28.99 27.99Q35.65 15.48 45.82 15.48L45.82 15.48Q56.89 15.48 58.51 26.10L58.51 26.10Q59.05 29.16 58.96 32.67L58.96 32.67L58.96 33.39Q64.81 25.29 72.81 25.29L72.81 25.29Q84.16 25.29 84.16 38.97L84.16 38.97Q84.16 44.91 82.31 52.88Q80.47 60.84 79.61 64.31Q78.75 67.77 78.75 69.66L78.75 69.66Q78.75 73.08 81.14 73.08Q83.53 73.08 92.53 63.72L92.53 63.72Q94.14 61.92 94.86 61.92Z"></path></svg>