<?xml version="1.0" ?><svg viewBox="0 0 32 32" xmlns="http://www.w3.org/2000/svg"><defs><style>.cls-1{fill:#d8e1ef;}.cls-2{fill:#0e6ae0;}.cls-3{fill:#0593ff;}</style></defs><title/><g data-name="Home Lock" id="Home_Lock"><path class="cls-1" d="M26.45,9.11l-10-5a1,1,0,0,0-.9,0l-10,5A1,1,0,0,0,5,10V25a3,3,0,0,0,3,3H24a3,3,0,0,0,3-3V10A1,1,0,0,0,26.45,9.11Z"/><path class="cls-3" d="M28,12a.93.93,0,0,1-.45-.11L16,6.12,4.45,11.89a1,1,0,0,1-.9-1.78l12-6a1,1,0,0,1,.9,0l12,6a1,1,0,0,1,.44,1.34A1,1,0,0,1,28,12Z"/></g></svg>
