<?xml version="1.0" ?><svg viewBox="0 0 32 32" xmlns="http://www.w3.org/2000/svg"><defs><style>.cls-1{fill:#d8e1ef;}.cls-2{fill:#0593ff;}</style></defs><title/><g id="Gear"><path class="cls-1" d="M29,13H25.53a9.53,9.53,0,0,0-.67-1.62l2.45-2.45a1,1,0,0,0,0-1.42L24.49,4.69a1,1,0,0,0-1.42,0L20.62,7.14A9.53,9.53,0,0,0,19,6.47V3a1,1,0,0,0-1-1H14a1,1,0,0,0-1,1V6.47a9.53,9.53,0,0,0-1.62.67L8.93,4.69a1,1,0,0,0-1.42,0L4.69,7.51a1,1,0,0,0,0,1.42l2.45,2.45c-.12.23-.23.47-.34.71a8.92,8.92,0,0,0-.33.91H3a1,1,0,0,0-1,1v4a1,1,0,0,0,1,1H6.47a9.53,9.53,0,0,0,.67,1.62L4.69,23.07a1,1,0,0,0,0,1.42l2.82,2.82a1,1,0,0,0,1.42,0l2.45-2.45a9.53,9.53,0,0,0,1.62.67V29a1,1,0,0,0,1,1h4a1,1,0,0,0,1-1V25.53a9.53,9.53,0,0,0,1.62-.67l2.45,2.45a1,1,0,0,0,1.42,0l2.82-2.82a1,1,0,0,0,0-1.42l-2.45-2.45A9.53,9.53,0,0,0,25.53,19H29a1,1,0,0,0,1-1V14A1,1,0,0,0,29,13Z"/><circle class="cls-2" cx="16" cy="16" r="5"/></g></svg>